<?xml version="1.0" encoding="utf-8"?>
<svg id="master-artboard" viewBox="0 0 1400 980" version="1.1" xmlns="http://www.w3.org/2000/svg" x="0px" y="0px" width="1400px" height="980px" enable-background="new 0 0 1400 980">
<g transform="matrix(1, 0, 0, 1, 0, 0)">
		<path d="M 0 0 H 1400 V 980 H 0 V 0 Z" fill="#FFFFFF"/>
	</g><path d="M891.6,717.3H504.9c-1.5,0-2.7-1.2-2.7-2.7V269.9c0-1.5,1.2-2.7,2.7-2.7h386.7c1.5,0,2.7,1.2,2.7,2.7v444.7&#10;&#9;&#9;&#9;C894.3,716.1,893.1,717.3,891.6,717.3z M507.6,711.9h381.3V272.6H507.6V711.9z" transform="matrix(1, 0, 0, 1, 0, 0)"/><g transform="matrix(1, 0, 0, 1, 0, 0)">
			<path d="M 732.7999877929688 396.8999938964844 L 678.4000244140625 479.3999938964844 L 643.9000244140625 427.1000061035156 L 582.2999877929688 520.5 L 651.2999877929688 520.5 L 705.5 520.5 L 814.2000122070312 520.5 Z" fill="#E6E7E8"/>
			<path d="M814.2,523.2H582.3c-1,0-1.9-0.5-2.4-1.4c-0.5-0.9-0.4-2,0.1-2.8l61.6-93.5c0.5-0.8,1.4-1.2,2.3-1.2l0,0&#10;&#9;&#9;&#9;&#9;c0.9,0,1.8,0.5,2.3,1.2l32.2,48.9l52.1-79.1c1-1.5,3.5-1.5,4.5,0L816.5,519c0.5,0.8,0.6,1.9,0.1,2.8&#10;&#9;&#9;&#9;&#9;C816.1,522.7,815.2,523.2,814.2,523.2z M587.3,517.8h221.8l-76.4-116l-52.1,79.1c-1,1.5-3.5,1.5-4.5,0L643.9,432L587.3,517.8z"/>
		</g><path d="M855.2,523.2H541.3c-1.5,0-2.7-1.2-2.7-2.7s1.2-2.7,2.7-2.7h313.9c1.5,0,2.7,1.2,2.7,2.7S856.7,523.2,855.2,523.2z" transform="matrix(1, 0, 0, 1, 0, 0)"/><path d="M658.2,552H541.3c-1.5,0-2.7-1.2-2.7-2.7c0-1.5,1.2-2.7,2.7-2.7h116.9c1.5,0,2.7,1.2,2.7,2.7&#10;&#9;&#9;&#9;&#9;C660.9,550.8,659.7,552,658.2,552z" transform="matrix(1, 0, 0, 1, 0, 0)"/><path d="M695.3,507.8c-0.9,0-1.7-0.4-2.3-1.2l-16.9-25.6c-0.8-1.3-0.5-2.9,0.8-3.8c1.3-0.8,2.9-0.5,3.8,0.8l16.9,25.6&#10;&#9;&#9;&#9;&#9;c0.8,1.3,0.5,2.9-0.8,3.8C696.3,507.6,695.8,507.8,695.3,507.8z" transform="matrix(1, 0, 0, 1, 0, 0)"/><path d="M706.2,552h-22.4c-1.5,0-2.7-1.2-2.7-2.7c0-1.5,1.2-2.7,2.7-2.7h22.4c1.5,0,2.7,1.2,2.7,2.7&#10;&#9;&#9;&#9;&#9;C708.9,550.8,707.7,552,706.2,552z" transform="matrix(1, 0, 0, 1, 0, 0)"/><path d="M754.1,552h-22.3c-1.5,0-2.7-1.2-2.7-2.7c0-1.5,1.2-2.7,2.7-2.7h22.3c1.5,0,2.7,1.2,2.7,2.7&#10;&#9;&#9;&#9;&#9;C756.8,550.8,755.6,552,754.1,552z" transform="matrix(1, 0, 0, 1, 0, 0)"/><path d="M802.1,552h-22.3c-1.5,0-2.7-1.2-2.7-2.7c0-1.5,1.2-2.7,2.7-2.7h22.3c1.5,0,2.7,1.2,2.7,2.7&#10;&#9;&#9;&#9;&#9;C804.8,550.8,803.6,552,802.1,552z" transform="matrix(1, 0, 0, 1, 0, 0)"/><path fill="#FFE595" d="M700.6,388.9c0,12.3-10,22.2-22.2,22.2c-12.3,0-22.2-10-22.2-22.2c0-12.3,10-22.3,22.2-22.3&#10;&#9;&#9;&#9;&#9;C690.7,366.6,700.6,376.6,700.6,388.9z" transform="matrix(1, 0, 0, 1, 0, 0)"/><path d="M678.4,413.8c-13.8,0-25-11.2-25-25c0-13.8,11.2-25,25-25c13.8,0,25,11.2,25,25C703.4,402.6,692.2,413.8,678.4,413.8z&#10;&#9;&#9;&#9;&#9; M678.4,369.3c-10.8,0-19.5,8.8-19.5,19.5c0,10.8,8.8,19.5,19.5,19.5c10.8,0,19.5-8.8,19.5-19.5&#10;&#9;&#9;&#9;&#9;C697.9,378.1,689.2,369.3,678.4,369.3z" transform="matrix(1, 0, 0, 1, 0, 0)"/><path d="M 891.599976 320.100006 H 1024.099976 V 664.5 H 891.599976 V 320.100006 Z" fill="#F1F2F2" transform="matrix(1, 0, 0, 1, 0, 0)"/><path d="M1024.1,667.2H891.6c-1.5,0-2.7-1.2-2.7-2.7V320.1c0-1.5,1.2-2.7,2.7-2.7h132.5c1.5,0,2.7,1.2,2.7,2.7v344.4&#10;&#9;&#9;&#9;C1026.8,665.9,1025.6,667.2,1024.1,667.2z M894.3,661.7h127.1v-339H894.3V661.7z" transform="matrix(1, 0, 0, 1, 0, 0)"/><path d="M 1024.099976 364.799988 H 1122.199974 V 619.699982 H 1024.099976 V 364.799988 Z" fill="#F1F2F2" transform="matrix(1, 0, 0, 1, 0, 0)"/><path d="M1122.2,622.4h-98.1c-1.5,0-2.7-1.2-2.7-2.7V364.8c0-1.5,1.2-2.7,2.7-2.7h98.1c1.5,0,2.7,1.2,2.7,2.7v254.9&#10;&#9;&#9;&#9;C1124.9,621.2,1123.7,622.4,1122.2,622.4z M1026.8,617h92.6V367.5h-92.6V617z" transform="matrix(1, 0, 0, 1, 0, 0)"/><path d="M 372.399994 320.100006 H 504.899994 V 664.5 H 372.399994 V 320.100006 Z" fill="#F1F2F2" transform="matrix(1, 0, 0, 1, 0, 0)"/><path d="M504.9,667.2H372.4c-1.5,0-2.7-1.2-2.7-2.7V320.1c0-1.5,1.2-2.7,2.7-2.7h132.5c1.5,0,2.7,1.2,2.7,2.7v344.4&#10;&#9;&#9;&#9;C507.6,665.9,506.4,667.2,504.9,667.2z M375.1,661.7h127.1v-339H375.1V661.7z" transform="matrix(1, 0, 0, 1, 0, 0)"/><path d="M 274.399994 364.799988 H 372.499992 V 619.699982 H 274.399994 V 364.799988 Z" fill="#F1F2F2" transform="matrix(1, 0, 0, 1, 0, 0)"/><path d="M372.4,622.4h-98.1c-1.5,0-2.7-1.2-2.7-2.7V364.8c0-1.5,1.2-2.7,2.7-2.7h98.1c1.5,0,2.7,1.2,2.7,2.7v254.9&#10;&#9;&#9;&#9;C375.1,621.2,373.9,622.4,372.4,622.4z M277.1,617h92.6V367.5h-92.6V617z" transform="matrix(1, 0, 0, 1, 0, 0)"/><path fill="#51BFFF" d="M829.8,355.5c0,12.8-10.4,23.2-23.2,23.2c-12.8,0-23.2-10.4-23.2-23.2c0-12.8,10.4-23.2,23.2-23.2&#10;&#9;&#9;&#9;C819.4,332.2,829.8,342.6,829.8,355.5z" transform="matrix(1, 0, 0, 1, 0, 0)"/><path fill="#51BFFF" d="M584.9,400.2c0,9-7.3,16.4-16.4,16.4s-16.4-7.3-16.4-16.4c0-9,7.3-16.4,16.4-16.4S584.9,391.2,584.9,400.2&#10;&#9;&#9;&#9;z" transform="matrix(1, 0, 0, 1, 0, 0)"/><path d="M845.8,358.2h-14.3c-1.5,0-2.7-1.2-2.7-2.7c0-12.3-10-22.2-22.2-22.2s-22.2,10-22.2,22.2c0,1.5-1.2,2.7-2.7,2.7h-23.3&#10;&#9;&#9;&#9;c-1.5,0-2.7-1.2-2.7-2.7c0-1.5,1.2-2.7,2.7-2.7h20.7c1.4-14,13.2-25,27.5-25c14.3,0,26.2,11,27.5,25h11.7c1.5,0,2.7,1.2,2.7,2.7&#10;&#9;&#9;&#9;C848.6,357,847.3,358.2,845.8,358.2z" transform="matrix(1, 0, 0, 1, 0, 0)"/><path d="M616.9,403h-31.5c-1.5,0-2.7-1.2-2.7-2.7c0-7.7-6.2-13.9-13.9-13.9c-7.7,0-13.9,6.2-13.9,13.9c0,1.5-1.2,2.7-2.7,2.7&#10;&#9;&#9;&#9;s-2.7-1.2-2.7-2.7c0-10.6,8.7-19.3,19.3-19.3c9.7,0,17.8,7.2,19.1,16.6h29c1.5,0,2.7,1.2,2.7,2.7C619.6,401.7,618.4,403,616.9,403&#10;&#9;&#9;&#9;z" transform="matrix(1, 0, 0, 1, 0, 0)"/><path d="M 541.299988 580 H 841.299988 V 599.799999 H 541.299988 V 580 Z" fill="#FF8E87" transform="matrix(1, 0, 0, 1, 0, 0)"/><path d="M 541.299988 639.599976 H 814.199982 V 659.399975 H 541.299988 V 639.599976 Z" fill="#FF8E87" transform="matrix(1, 0, 0, 1, 0, 0)"/><path d="M785,612.2H541.3c-1.5,0-2.7-1.2-2.7-2.7V580c0-1.5,1.2-2.7,2.7-2.7h313.9c1.5,0,2.7,1.2,2.7,2.7c0,1.5-1.2,2.7-2.7,2.7&#10;&#9;&#9;&#9;H544v24h241c1.5,0,2.7,1.2,2.7,2.7S786.5,612.2,785,612.2z" transform="matrix(1, 0, 0, 1, 0, 0)"/><path d="M683.8,671.8H541.3c-1.5,0-2.7-1.2-2.7-2.7v-29.4c0-1.5,1.2-2.7,2.7-2.7h313.9c1.5,0,2.7,1.2,2.7,2.7&#10;&#9;&#9;&#9;c0,1.5-1.2,2.7-2.7,2.7H544v24h139.8c1.5,0,2.7,1.2,2.7,2.7C686.5,670.5,685.3,671.8,683.8,671.8z" transform="matrix(1, 0, 0, 1, 0, 0)"/><path fill="#51BFFF" d="M1317.8,492.4c0,41.5-33.7,75.2-75.2,75.2s-75.2-33.7-75.2-75.2c0-41.5,33.7-75.2,75.2-75.2&#10;&#9;&#9;&#9;S1317.8,450.8,1317.8,492.4z" transform="matrix(1, 0, 0, 1, 0, 0)"/><path d="M1242.5,570.3c-43,0-77.9-35-77.9-77.9c0-43,35-77.9,77.9-77.9s77.9,35,77.9,77.9C1320.5,535.4,1285.5,570.3,1242.5,570.3&#10;&#9;&#9;&#9;z M1242.5,419.9c-40,0-72.5,32.5-72.5,72.5c0,40,32.5,72.5,72.5,72.5c40,0,72.5-32.5,72.5-72.5&#10;&#9;&#9;&#9;C1315,452.4,1282.5,419.9,1242.5,419.9z" transform="matrix(1, 0, 0, 1, 0, 0)"/><path fill="#FFFFFF" d="M1233.3,452.4l50.2,40l-50.4,39.8l0-15l-61.6-0.1c-2.7-7.8-4.3-16.1-4.3-24.8c0-8.8,1.6-17.2,4.3-25&#10;&#9;&#9;&#9;l61.6,0.1L1233.3,452.4z" transform="matrix(1, 0, 0, 1, 0, 0)"/><path d="M1242.5,570.3c-43,0-77.9-35-77.9-77.9c0-43,35-77.9,77.9-77.9s77.9,35,77.9,77.9C1320.5,535.4,1285.5,570.3,1242.5,570.3&#10;&#9;&#9;&#9;z M1242.5,419.9c-40,0-72.5,32.5-72.5,72.5c0,40,32.5,72.5,72.5,72.5c40,0,72.5-32.5,72.5-72.5&#10;&#9;&#9;&#9;C1315,452.4,1282.5,419.9,1242.5,419.9z" transform="matrix(1, 0, 0, 1, 0, 0)"/><path fill="#FF8E87" d="M76.3,492.3c0-41.5,33.7-75.2,75.2-75.2c41.6,0,75.2,33.7,75.2,75.2c0,41.5-33.7,75.2-75.2,75.2&#10;&#9;&#9;&#9;C110,567.5,76.3,533.8,76.3,492.3z" transform="matrix(1, 0, 0, 1, 0, 0)"/><path d="M151.5,570.2c-43,0-77.9-35-77.9-77.9c0-43,35-77.9,77.9-77.9c43,0,77.9,35,77.9,77.9&#10;&#9;&#9;&#9;C229.5,535.3,194.5,570.2,151.5,570.2z M151.5,419.8c-40,0-72.5,32.5-72.5,72.5c0,40,32.5,72.5,72.5,72.5&#10;&#9;&#9;&#9;c40,0,72.5-32.5,72.5-72.5C224.1,452.3,191.5,419.8,151.5,419.8z" transform="matrix(1, 0, 0, 1, 0, 0)"/><path fill="#FFFFFF" d="M160.8,532.3l-50.2-40l50.4-39.8l0,15l61.6,0.1c2.7,7.8,4.3,16.1,4.3,24.9c0,8.8-1.6,17.2-4.3,25&#10;&#9;&#9;&#9;l-61.6-0.1L160.8,532.3z" transform="matrix(1, 0, 0, 1, 0, 0)"/><path d="M151.5,570.2c-43,0-77.9-35-77.9-77.9c0-43,35-77.9,77.9-77.9c43,0,77.9,35,77.9,77.9&#10;&#9;&#9;&#9;C229.5,535.3,194.5,570.2,151.5,570.2z M151.5,419.8c-40,0-72.5,32.5-72.5,72.5c0,40,32.5,72.5,72.5,72.5&#10;&#9;&#9;&#9;c40,0,72.5-32.5,72.5-72.5C224.1,452.3,191.5,419.8,151.5,419.8z" transform="matrix(1, 0, 0, 1, 0, 0)"/><g transform="matrix(1, 0, 0, 1, 0, 0)">
			<g>
				<path d="M281.4,234H121.8c-1,0-1.9-0.5-2.4-1.4c-0.5-0.9-0.4-1.9,0.1-2.8l42.4-64.3c1-1.5,3.5-1.5,4.5,0L188,198l35.1-53.3&#10;&#9;&#9;&#9;&#9;&#9;c1-1.5,3.5-1.5,4.5,0l56.1,85.1c0.5,0.8,0.6,1.9,0.1,2.8C283.3,233.4,282.4,234,281.4,234z M126.9,228.6h149.5l-51-77.4&#10;&#9;&#9;&#9;&#9;&#9;l-35.1,53.3c-1,1.5-3.5,1.5-4.5,0l-21.5-32.6L126.9,228.6z"/>
			</g>
			<g>
				<path d="M309.6,234H85c-1.5,0-2.7-1.2-2.7-2.7c0-1.5,1.2-2.7,2.7-2.7h224.6c1.5,0,2.7,1.2,2.7,2.7&#10;&#9;&#9;&#9;&#9;&#9;C312.3,232.8,311.1,234,309.6,234z"/>
			</g>
			<g>
				<path d="M174.1,253.8H85c-1.5,0-2.7-1.2-2.7-2.7c0-1.5,1.2-2.7,2.7-2.7h89c1.5,0,2.7,1.2,2.7,2.7&#10;&#9;&#9;&#9;&#9;&#9;C176.8,252.6,175.6,253.8,174.1,253.8z"/>
			</g>
			<g>
				<path d="M199.6,223.3c-0.9,0-1.7-0.4-2.3-1.2l-11.6-17.6c-0.8-1.3-0.5-2.9,0.8-3.8c1.3-0.8,2.9-0.5,3.8,0.8l11.6,17.6&#10;&#9;&#9;&#9;&#9;&#9;c0.8,1.3,0.5,2.9-0.8,3.8C200.6,223.2,200.1,223.3,199.6,223.3z"/>
			</g>
			<g>
				<path d="M207.1,253.8h-15.4c-1.5,0-2.7-1.2-2.7-2.7c0-1.5,1.2-2.7,2.7-2.7h15.4c1.5,0,2.7,1.2,2.7,2.7&#10;&#9;&#9;&#9;&#9;&#9;C209.8,252.6,208.6,253.8,207.1,253.8z"/>
			</g>
			<g>
				<path d="M240.1,253.8h-15.4c-1.5,0-2.7-1.2-2.7-2.7c0-1.5,1.2-2.7,2.7-2.7h15.4c1.5,0,2.7,1.2,2.7,2.7&#10;&#9;&#9;&#9;&#9;&#9;C242.8,252.6,241.6,253.8,240.1,253.8z"/>
			</g>
			<g>
				<path d="M273.1,253.8h-15.4c-1.5,0-2.7-1.2-2.7-2.7c0-1.5,1.2-2.7,2.7-2.7h15.4c1.5,0,2.7,1.2,2.7,2.7&#10;&#9;&#9;&#9;&#9;&#9;C275.8,252.6,274.6,253.8,273.1,253.8z"/>
			</g>
			<g>
				<path d="M188,158.7c-9.9,0-18-8.1-18-18c0-9.9,8.1-18,18-18c9.9,0,18,8.1,18,18C206,150.6,197.9,158.7,188,158.7z M188,128.1&#10;&#9;&#9;&#9;&#9;&#9;c-6.9,0-12.6,5.6-12.6,12.6c0,6.9,5.6,12.6,12.6,12.6c6.9,0,12.6-5.6,12.6-12.6C200.6,133.7,194.9,128.1,188,128.1z"/>
			</g>
		</g><path d="M309.6,274.1H85c-1.5,0-2.7-1.2-2.7-2.7V108.8c0-1.5,1.2-2.7,2.7-2.7h224.6c1.5,0,2.7,1.2,2.7,2.7v162.6&#10;&#9;&#9;&#9;&#9;C312.3,272.9,311.1,274.1,309.6,274.1z M87.8,268.7h219.2V111.5H87.8V268.7z" transform="matrix(1, 0, 0, 1, 0, 0)"/><g transform="matrix(1, 0, 0, 1, 0, 0)">
			<g>
				<path d="M1220.5,234h-159.6c-1,0-1.9-0.5-2.4-1.4c-0.5-0.9-0.4-1.9,0.1-2.8l42.4-64.3c0.5-0.8,1.4-1.2,2.3-1.2l0,0&#10;&#9;&#9;&#9;&#9;&#9;c0.9,0,1.8,0.5,2.3,1.2L1127,198l35.1-53.3c1-1.5,3.5-1.5,4.5,0l56.1,85.1c0.5,0.8,0.6,1.9,0.1,2.8&#10;&#9;&#9;&#9;&#9;&#9;C1222.4,233.4,1221.5,234,1220.5,234z M1065.9,228.6h149.5l-51-77.4l-35.1,53.3c-1,1.5-3.5,1.5-4.5,0l-21.5-32.6L1065.9,228.6z"/>
			</g>
			<g>
				<path d="M1248.7,234h-224.6c-1.5,0-2.7-1.2-2.7-2.7c0-1.5,1.2-2.7,2.7-2.7h224.6c1.5,0,2.7,1.2,2.7,2.7&#10;&#9;&#9;&#9;&#9;&#9;C1251.4,232.8,1250.2,234,1248.7,234z"/>
			</g>
			<g>
				<path d="M1113.1,253.8h-89c-1.5,0-2.7-1.2-2.7-2.7c0-1.5,1.2-2.7,2.7-2.7h89c1.5,0,2.7,1.2,2.7,2.7&#10;&#9;&#9;&#9;&#9;&#9;C1115.8,252.6,1114.6,253.8,1113.1,253.8z"/>
			</g>
			<g>
				<path d="M1138.7,223.3c-0.9,0-1.7-0.4-2.3-1.2l-11.6-17.6c-0.8-1.3-0.5-2.9,0.8-3.8c1.3-0.8,2.9-0.5,3.8,0.8l11.6,17.6&#10;&#9;&#9;&#9;&#9;&#9;c0.8,1.3,0.5,2.9-0.8,3.8C1139.7,223.2,1139.2,223.3,1138.7,223.3z"/>
			</g>
			<g>
				<path d="M1146.1,253.8h-15.4c-1.5,0-2.7-1.2-2.7-2.7c0-1.5,1.2-2.7,2.7-2.7h15.4c1.5,0,2.7,1.2,2.7,2.7&#10;&#9;&#9;&#9;&#9;&#9;C1148.8,252.6,1147.6,253.8,1146.1,253.8z"/>
			</g>
			<g>
				<path d="M1179.1,253.8h-15.4c-1.5,0-2.7-1.2-2.7-2.7c0-1.5,1.2-2.7,2.7-2.7h15.4c1.5,0,2.7,1.2,2.7,2.7&#10;&#9;&#9;&#9;&#9;&#9;C1181.8,252.6,1180.6,253.8,1179.1,253.8z"/>
			</g>
			<g>
				<path d="M1212.1,253.8h-15.4c-1.5,0-2.7-1.2-2.7-2.7c0-1.5,1.2-2.7,2.7-2.7h15.4c1.5,0,2.7,1.2,2.7,2.7&#10;&#9;&#9;&#9;&#9;&#9;C1214.9,252.6,1213.6,253.8,1212.1,253.8z"/>
			</g>
			<g>
				<path d="M1127,158.7c-9.9,0-18-8.1-18-18c0-9.9,8.1-18,18-18c9.9,0,18,8.1,18,18C1145.1,150.6,1137,158.7,1127,158.7z&#10;&#9;&#9;&#9;&#9;&#9; M1127,128.1c-6.9,0-12.6,5.6-12.6,12.6c0,6.9,5.6,12.6,12.6,12.6c6.9,0,12.6-5.6,12.6-12.6C1139.6,133.7,1134,128.1,1127,128.1&#10;&#9;&#9;&#9;&#9;&#9;z"/>
			</g>
		</g><path d="M1248.7,274.1h-224.6c-1.5,0-2.7-1.2-2.7-2.7V108.8c0-1.5,1.2-2.7,2.7-2.7h224.6c1.5,0,2.7,1.2,2.7,2.7v162.6&#10;&#9;&#9;&#9;&#9;C1251.4,272.9,1250.2,274.1,1248.7,274.1z M1026.8,268.7H1246V111.5h-219.2V268.7z" transform="matrix(1, 0, 0, 1, 0, 0)"/><path fill="#FFFFFF" d="M359.1,271.4c0,27.3-22.2,49.5-49.5,49.5c-27.3,0-49.5-22.2-49.5-49.5c0-27.3,22.2-49.5,49.5-49.5&#10;&#9;&#9;&#9;C336.9,221.9,359.1,244.1,359.1,271.4z" transform="matrix(1, 0, 0, 1, 0, 0)"/><path d="M309.6,323.6c-28.8,0-52.2-23.4-52.2-52.2c0-28.8,23.4-52.2,52.2-52.2s52.2,23.4,52.2,52.2&#10;&#9;&#9;&#9;C361.8,300.2,338.4,323.6,309.6,323.6z M309.6,224.6c-25.8,0-46.8,21-46.8,46.8c0,25.8,21,46.8,46.8,46.8&#10;&#9;&#9;&#9;c25.8,0,46.8-21,46.8-46.8C356.4,245.6,335.4,224.6,309.6,224.6z" transform="matrix(1, 0, 0, 1, 0, 0)"/><g transform="matrix(1, 0, 0, 1, 0, 0)">
			<path d="M 1166.5999755859375 320.29998779296875 L 1215.9000244140625 309.3999938964844 L 1177.5 271 Z" fill="#FFFFFF"/>
			<path d="M1166.6,323c-0.7,0-1.4-0.3-1.9-0.8c-0.7-0.7-0.9-1.6-0.7-2.5l10.9-49.2c0.2-1,0.9-1.7,1.9-2c1-0.3,2,0,2.7,0.7&#10;&#9;&#9;&#9;&#9;l38.4,38.4c0.7,0.7,1,1.7,0.7,2.7c-0.3,1-1.1,1.7-2,1.9l-49.2,10.9C1167,323,1166.8,323,1166.6,323z M1179.1,276.5l-8.9,40.2&#10;&#9;&#9;&#9;&#9;l40.3-8.9L1179.1,276.5z"/>
		</g><path d="M 1263.099976 183.800003 H 1317.299976 V 209.400003 H 1263.099976 V 183.800003 Z" transform="matrix(0.7071999907493591, 0.7070000171661377, -0.7070000171661377, 0.7071999907493591, 516.8095703125, -854.6190795898438)" fill="#FFFFFF"/><path d="M1300.3,227.6c-0.7,0-1.4-0.3-1.9-0.8l-38.4-38.4c-0.5-0.5-0.8-1.2-0.8-1.9s0.3-1.4,0.8-1.9l18.1-18.1&#10;&#9;&#9;&#9;&#9;c1.1-1.1,2.8-1.1,3.8,0l38.4,38.4c1.1,1.1,1.1,2.8,0,3.8l-18.1,18.1C1301.8,227.3,1301.1,227.6,1300.3,227.6z M1265.8,186.5&#10;&#9;&#9;&#9;&#9;l34.5,34.5l14.3-14.3l-34.5-34.5L1265.8,186.5z" transform="matrix(1, 0, 0, 1, 0, 0)"/><path d="M 1246 202.399994 H 1300.200001 V 225.099995 H 1246 V 202.399994 Z" transform="matrix(0.7071999907493591, 0.7071000337600708, -0.7071000337600708, 0.7071999907493591, 523.96142578125, -837.5687866210938)" fill="#FFFFFF"/><path d="M1284.3,243.7c-0.7,0-1.4-0.3-1.9-0.8l-38.4-38.4c-0.5-0.5-0.8-1.2-0.8-1.9s0.3-1.4,0.8-1.9l16.1-16.1&#10;&#9;&#9;&#9;&#9;c1.1-1.1,2.8-1.1,3.8,0l38.4,38.4c0.5,0.5,0.8,1.2,0.8,1.9c0,0.7-0.3,1.4-0.8,1.9l-16.1,16.1&#10;&#9;&#9;&#9;&#9;C1285.7,243.4,1285,243.7,1284.3,243.7z M1249.8,202.6l34.5,34.5l12.2-12.2l-34.5-34.5L1249.8,202.6z" transform="matrix(1, 0, 0, 1, 0, 0)"/><path d="M 1245.9000244140625 202.60000610351562 L 1177.5 271 L 1215.9000244140625 309.3999938964844 L 1284.300048828125 241 Z" fill="#FFFFFF" transform="matrix(1, 0, 0, 1, 0, 0)"/><path d="M1215.9,312.1c-0.7,0-1.4-0.3-1.9-0.8l-38.4-38.4c-0.5-0.5-0.8-1.2-0.8-1.9c0-0.7,0.3-1.4,0.8-1.9l68.4-68.4&#10;&#9;&#9;&#9;&#9;c1.1-1.1,2.8-1.1,3.8,0l38.4,38.4c0.5,0.5,0.8,1.2,0.8,1.9c0,0.7-0.3,1.4-0.8,1.9l-68.4,68.4&#10;&#9;&#9;&#9;&#9;C1217.2,311.8,1216.5,312.1,1215.9,312.1z M1181.3,271l34.5,34.5l64.6-64.6l-34.5-34.5L1181.3,271z" transform="matrix(1, 0, 0, 1, 0, 0)"/><g transform="matrix(1, 0, 0, 1, 0, 0)">
			<path d="M337.8,274.1h-56.3c-1.5,0-2.7-1.2-2.7-2.7c0-1.5,1.2-2.7,2.7-2.7h56.3c1.5,0,2.7,1.2,2.7,2.7&#10;&#9;&#9;&#9;&#9;C340.5,272.9,339.3,274.1,337.8,274.1z"/>
		</g><path d="M309.6,302.3c-1.5,0-2.7-1.2-2.7-2.7v-56.3c0-1.5,1.2-2.7,2.7-2.7s2.7,1.2,2.7,2.7v56.3&#10;&#9;&#9;&#9;&#9;C312.3,301,311.1,302.3,309.6,302.3z" transform="matrix(1, 0, 0, 1, 0, 0)"/><path d="M526.8,228H399.5c-1.5,0-2.7-1.2-2.7-2.7V98c0-1.5,1.2-2.7,2.7-2.7h127.4c1.5,0,2.7,1.2,2.7,2.7v127.4&#10;&#9;&#9;&#9;C529.6,226.8,528.3,228,526.8,228z M402.2,222.6h121.9V100.7H402.2V222.6z" transform="matrix(1, 0, 0, 1, 0, 0)"/><path d="M955.3,228H827.9c-1.5,0-2.7-1.2-2.7-2.7V98c0-1.5,1.2-2.7,2.7-2.7h127.4c1.5,0,2.7,1.2,2.7,2.7v127.4&#10;&#9;&#9;&#9;C958,226.8,956.8,228,955.3,228z M830.7,222.6h121.9V100.7H830.7V222.6z" transform="matrix(1, 0, 0, 1, 0, 0)"/><path d="M912.6,908.9H762.7c-1.5,0-2.7-1.2-2.7-2.7V756.3c0-1.5,1.2-2.7,2.7-2.7h149.8c1.5,0,2.7,1.2,2.7,2.7v149.8&#10;&#9;&#9;&#9;C915.3,907.7,914.1,908.9,912.6,908.9z M765.4,903.5h144.4V759H765.4V903.5z" transform="matrix(1, 0, 0, 1, 0, 0)"/><path d="M468.3,203.1c-0.1,0-0.2,0-0.3,0c-1.2-0.1-2.1-1-2.4-2.1l-7.2-33l-33-7.2c-1.1-0.3-2-1.2-2.1-2.4&#10;&#9;&#9;&#9;c-0.1-1.2,0.5-2.3,1.6-2.8l75.9-33.6c1-0.5,2.2-0.2,3,0.6c0.8,0.8,1,2,0.6,3l-33.6,75.9C470.3,202.4,469.4,203.1,468.3,203.1z&#10;&#9;&#9;&#9; M434.7,157.2l26.6,5.8c1,0.2,1.8,1,2.1,2.1l5.8,26.6l27.4-61.9L434.7,157.2z" transform="matrix(1, 0, 0, 1, 0, 0)"/><g transform="matrix(1, 0, 0, 1, 0, 0)">
			<path d="M1257.8,894.2h-234.3c-17,0-30.8-13.8-30.8-30.8V740.1c0-17,13.8-30.8,30.8-30.8h234.3c17,0,30.8,13.8,30.8,30.8v123.2&#10;&#9;&#9;&#9;&#9;C1288.6,880.3,1274.8,894.2,1257.8,894.2z M1023.5,714.8c-14,0-25.4,11.4-25.4,25.4v123.2c0,14,11.4,25.4,25.4,25.4h234.3&#10;&#9;&#9;&#9;&#9;c14,0,25.4-11.4,25.4-25.4V740.1c0-14-11.4-25.4-25.4-25.4H1023.5z"/>
		</g><path d="M1069.5,759h-49.7c-1.5,0-2.7-1.2-2.7-2.7v-22.6c0-1.5,1.2-2.7,2.7-2.7h49.7c1.5,0,2.7,1.2,2.7,2.7v22.6&#10;&#9;&#9;&#9;&#9;C1072.2,757.8,1071,759,1069.5,759z M1022.5,753.6h44.3v-17.2h-44.3V753.6z" transform="matrix(1, 0, 0, 1, 0, 0)"/><path d="M1140.7,875.6c-40.7,0-73.9-33.1-73.9-73.9c0-40.7,33.1-73.9,73.9-73.9c40.7,0,73.9,33.1,73.9,73.9&#10;&#9;&#9;&#9;&#9;C1214.6,842.5,1181.4,875.6,1140.7,875.6z M1140.7,733.3c-37.7,0-68.5,30.7-68.5,68.4c0,37.7,30.7,68.5,68.5,68.5&#10;&#9;&#9;&#9;&#9;c37.7,0,68.4-30.7,68.4-68.5C1209.1,764,1178.4,733.3,1140.7,733.3z" transform="matrix(1, 0, 0, 1, 0, 0)"/><path d="M1140.7,849.9c-26.5,0-48.1-21.6-48.1-48.1s21.6-48.1,48.1-48.1s48.1,21.6,48.1,48.1S1167.2,849.9,1140.7,849.9z&#10;&#9;&#9;&#9;&#9; M1140.7,759c-23.6,0-42.7,19.2-42.7,42.7s19.2,42.7,42.7,42.7c23.6,0,42.7-19.2,42.7-42.7S1164.2,759,1140.7,759z" transform="matrix(1, 0, 0, 1, 0, 0)"/><path d="M1252.4,714.8h-53.2c-1.5,0-2.7-1.2-2.7-2.7v-16.4c0-1.5,1.2-2.7,2.7-2.7h53.2c1.5,0,2.7,1.2,2.7,2.7v16.4&#10;&#9;&#9;&#9;&#9;C1255.2,713.6,1253.9,714.8,1252.4,714.8z M1201.9,709.3h47.8v-11h-47.8V709.3z" transform="matrix(1, 0, 0, 1, 0, 0)"/><path d="M1285.9,752.7H1239c-1.5,0-2.7-1.2-2.7-2.7s1.2-2.7,2.7-2.7h46.9c1.5,0,2.7,1.2,2.7,2.7S1287.4,752.7,1285.9,752.7z" transform="matrix(1, 0, 0, 1, 0, 0)"/><path d="M1285.9,787.2H1239c-1.5,0-2.7-1.2-2.7-2.7c0-1.5,1.2-2.7,2.7-2.7h46.9c1.5,0,2.7,1.2,2.7,2.7&#10;&#9;&#9;&#9;&#9;C1288.6,786,1287.4,787.2,1285.9,787.2z" transform="matrix(1, 0, 0, 1, 0, 0)"/><path d="M1285.9,821.7H1239c-1.5,0-2.7-1.2-2.7-2.7c0-1.5,1.2-2.7,2.7-2.7h46.9c1.5,0,2.7,1.2,2.7,2.7&#10;&#9;&#9;&#9;&#9;C1288.6,820.5,1287.4,821.7,1285.9,821.7z" transform="matrix(1, 0, 0, 1, 0, 0)"/><path d="M1285.9,856.2H1239c-1.5,0-2.7-1.2-2.7-2.7c0-1.5,1.2-2.7,2.7-2.7h46.9c1.5,0,2.7,1.2,2.7,2.7&#10;&#9;&#9;&#9;&#9;C1288.6,855,1287.4,856.2,1285.9,856.2z" transform="matrix(1, 0, 0, 1, 0, 0)"/><path d="M1029.9,794.6c-5.6,0-10.1-4.5-10.1-10.1c0-5.6,4.5-10.1,10.1-10.1c5.6,0,10.1,4.5,10.1,10.1&#10;&#9;&#9;&#9;&#9;C1040,790.1,1035.4,794.6,1029.9,794.6z M1029.9,779.8c-2.6,0-4.7,2.1-4.7,4.7c0,2.6,2.1,4.7,4.7,4.7c2.6,0,4.7-2.1,4.7-4.7&#10;&#9;&#9;&#9;&#9;C1034.5,781.9,1032.4,779.8,1029.9,779.8z" transform="matrix(1, 0, 0, 1, 0, 0)"/><g transform="matrix(1, 0, 0, 1, 0, 0)">
			<path d="M314.9,845.2H90.3c-1.5,0-2.7-1.2-2.7-2.7V679.9c0-1.5,1.2-2.7,2.7-2.7h224.6c1.5,0,2.7,1.2,2.7,2.7v162.6&#10;&#9;&#9;&#9;&#9;C317.6,844,316.4,845.2,314.9,845.2z M93.1,839.8h219.2V682.6H93.1V839.8z"/>
		</g><path d="M 114.5 704 H 339.100006 V 866.600006 H 114.5 V 704 Z" fill="#FFFFFF" transform="matrix(1, 0, 0, 1, 0, 0)"/><path d="M339.1,869.3H114.5c-1.5,0-2.7-1.2-2.7-2.7V704c0-1.5,1.2-2.7,2.7-2.7h224.6c1.5,0,2.7,1.2,2.7,2.7v162.6&#10;&#9;&#9;&#9;&#9;C341.8,868.1,340.6,869.3,339.1,869.3z M117.2,863.9h219.2V706.8H117.2V863.9z" transform="matrix(1, 0, 0, 1, 0, 0)"/><g transform="matrix(1, 0, 0, 1, 0, 0)">
				<path d="M 260.20001220703125 870.9000244140625 L 222.89999389648438 870.9000244140625 L 175.39999389648438 870.9000244140625 L 138.60000610351562 870.9000244140625 L 138.60000610351562 890.7999877929688 L 227.60000610351562 890.7999877929688 L 245.3000030517578 890.7999877929688 L 260.6000061035156 890.7999877929688 L 278.29998779296875 890.7999877929688 L 293.6000061035156 890.7999877929688 L 311.29998779296875 890.7999877929688 L 326.6000061035156 890.7999877929688 L 363.20001220703125 890.7999877929688 L 363.20001220703125 870.9000244140625 L 335 870.9000244140625 Z" fill="#FFFFFF"/>
				<path d="M363.2,893.5H138.6c-1.5,0-2.7-1.2-2.7-2.7v-19.8c0-1.5,1.2-2.7,2.7-2.7h224.6c1.5,0,2.7,1.2,2.7,2.7v19.8&#10;&#9;&#9;&#9;&#9;&#9;C365.9,892.3,364.7,893.5,363.2,893.5z M141.3,888h219.2v-14.4H141.3V888z"/>
			</g><path fill="#FFFFFF" d="M138.6,728.2v142.8h36.8l42.4-64.3l23.7,36l37.4-56.8l56.1,85.1h28.2V728.2H138.6z M241.5,795.6&#10;&#9;&#9;&#9;&#9;&#9;c-8.4,0-15.3-6.8-15.3-15.3c0-8.5,6.9-15.3,15.3-15.3c8.5,0,15.3,6.8,15.3,15.3C256.8,788.8,250,795.6,241.5,795.6z" transform="matrix(1, 0, 0, 1, 0, 0)"/><path d="M363.2,873.6H335c-0.9,0-1.8-0.5-2.3-1.2l-53.8-81.6l-35.1,53.3c-1,1.5-3.5,1.5-4.5,0l-21.5-32.6l-40.1,60.9&#10;&#9;&#9;&#9;&#9;&#9;c-0.5,0.8-1.4,1.2-2.3,1.2h-36.8c-1.5,0-2.7-1.2-2.7-2.7V728.2c0-1.5,1.2-2.7,2.7-2.7h224.6c1.5,0,2.7,1.2,2.7,2.7v142.8&#10;&#9;&#9;&#9;&#9;&#9;C365.9,872.4,364.7,873.6,363.2,873.6z M336.5,868.2h24V730.9H141.3v137.3h32.6l41.6-63.1c0.5-0.8,1.4-1.2,2.3-1.2l0,0&#10;&#9;&#9;&#9;&#9;&#9;c0.9,0,1.8,0.5,2.3,1.2l21.5,32.6l35.1-53.3c1-1.5,3.5-1.5,4.5,0L336.5,868.2z M241.5,798.3c-9.9,0-18-8.1-18-18&#10;&#9;&#9;&#9;&#9;&#9;c0-9.9,8.1-18,18-18c9.9,0,18,8.1,18,18C259.6,790.3,251.5,798.3,241.5,798.3z M241.5,767.7c-6.9,0-12.6,5.7-12.6,12.6&#10;&#9;&#9;&#9;&#9;&#9;c0,6.9,5.6,12.6,12.6,12.6c6.9,0,12.6-5.6,12.6-12.6C254.1,773.4,248.5,767.7,241.5,767.7z" transform="matrix(1, 0, 0, 1, 0, 0)"/><path d="M 260.20001220703125 870.9000244140625 L 335 870.9000244140625 L 278.8999938964844 785.9000244140625 L 241.5 842.5999755859375 L 253.1999969482422 860.2999877929688 L 241.5 842.5999755859375 L 217.8000030517578 806.5999755859375 L 175.39999389648438 870.9000244140625 L 222.89999389648438 870.9000244140625 Z" fill="#FFFFFF" transform="matrix(1, 0, 0, 1, 0, 0)"/><path d="M335,873.6H175.4c-1,0-1.9-0.5-2.4-1.4c-0.5-0.9-0.4-1.9,0.1-2.8l42.4-64.3c0.5-0.8,1.4-1.2,2.3-1.2l0,0&#10;&#9;&#9;&#9;&#9;&#9;c0.9,0,1.8,0.5,2.3,1.2l21.5,32.6l35.1-53.3c1-1.5,3.5-1.5,4.5,0l56.1,85.1c0.5,0.8,0.6,1.9,0.1,2.8&#10;&#9;&#9;&#9;&#9;&#9;C336.9,873.1,336,873.6,335,873.6z M180.4,868.2h149.5l-51-77.4l-34.2,51.8l10.6,16.1c0.3,0.5,0.4,1,0.4,1.5&#10;&#9;&#9;&#9;&#9;&#9;c0,0.9-0.4,1.8-1.2,2.3c-1.3,0.8-2.9,0.5-3.8-0.8l-33.1-50.2L180.4,868.2z" transform="matrix(1, 0, 0, 1, 0, 0)"/><path fill="#FFFFFF" d="M241.5,765c-8.4,0-15.3,6.8-15.3,15.3c0,8.4,6.9,15.3,15.3,15.3c8.5,0,15.3-6.8,15.3-15.3&#10;&#9;&#9;&#9;&#9;&#9;C256.8,771.9,250,765,241.5,765z" transform="matrix(1, 0, 0, 1, 0, 0)"/><path d="M241.5,798.3c-9.9,0-18-8.1-18-18c0-9.9,8.1-18,18-18c9.9,0,18,8.1,18,18C259.6,790.3,251.5,798.3,241.5,798.3z&#10;&#9;&#9;&#9;&#9;&#9; M241.5,767.7c-6.9,0-12.6,5.7-12.6,12.6c0,6.9,5.6,12.6,12.6,12.6c6.9,0,12.6-5.6,12.6-12.6&#10;&#9;&#9;&#9;&#9;&#9;C254.1,773.4,248.5,767.7,241.5,767.7z" transform="matrix(1, 0, 0, 1, 0, 0)"/><g transform="matrix(1, 0, 0, 1, 0, 0)">
			<path d="M837.6,829.9c-14.3,0-26-11.7-26-26v-21.3c0-1,0.5-1.9,1.4-2.4c0.9-0.5,2-0.4,2.8,0.1l9.6,6.4l10.1-12.3&#10;&#9;&#9;&#9;&#9;c1-1.3,3.2-1.3,4.2,0l10.1,12.3l9.6-6.4c0.8-0.6,1.9-0.6,2.8-0.1c0.9,0.5,1.4,1.4,1.4,2.4v21.3&#10;&#9;&#9;&#9;&#9;C863.6,818.2,852,829.9,837.6,829.9z M817,787.7v16.2c0,11.3,9.2,20.6,20.6,20.6s20.6-9.2,20.6-20.6v-16.2l-7.4,4.9&#10;&#9;&#9;&#9;&#9;c-1.2,0.8-2.7,0.5-3.6-0.5l-9.6-11.7l-9.5,11.7c-0.9,1.1-2.4,1.3-3.6,0.5L817,787.7z"/>
		</g><g transform="matrix(1, 0, 0, 1, 0, 0)">
				<path d="M837.6,889.1c-0.4,0-0.7-0.1-1.1-0.2l-33.4-14.2c-0.9-0.4-1.6-1.3-1.6-2.3l-2.6-38.6c-0.1-0.7,0.2-1.5,0.7-2&#10;&#9;&#9;&#9;&#9;&#9;c0.5-0.5,1.2-0.9,2-0.9h3.4c1.1,0,2.2,0.7,2.6,1.8l6.9,18.7l24.7,16.6c0.8,0.5,1.2,1.3,1.2,2.3v16.1c0,0.9-0.5,1.8-1.2,2.3&#10;&#9;&#9;&#9;&#9;&#9;C838.7,889,838.1,889.1,837.6,889.1z M806.8,870.4l28.1,11.9v-10.5l-24.2-16.3c-0.5-0.3-0.8-0.8-1-1.3l-4.8-13.2L806.8,870.4z"/>
			</g><path d="M837.6,889.1c-0.5,0-1-0.2-1.5-0.5c-0.8-0.5-1.2-1.4-1.2-2.3v-16.1c0-0.9,0.5-1.7,1.2-2.3l24.7-16.6l7.1-19.5&#10;&#9;&#9;&#9;&#9;&#9;c0.4-1.1,1.4-1.8,2.6-1.8h3.2c0.8,0,1.5,0.3,2,0.9c0.5,0.5,0.8,1.3,0.7,2l-2.7,39.3c-0.1,1-0.7,1.9-1.6,2.3l-33.4,14.2&#10;&#9;&#9;&#9;&#9;&#9;C838.3,889,838,889.1,837.6,889.1z M840.3,871.8v10.5l28.1-11.9l2-29.5l-4.8,13.3c-0.2,0.5-0.6,1-1,1.3L840.3,871.8z" transform="matrix(1, 0, 0, 1, 0, 0)"/><path d="M837.6,873c-1.5,0-2.7-1.2-2.7-2.7v-43.1c0-1.5,1.2-2.7,2.7-2.7c1.5,0,2.7,1.2,2.7,2.7v43.1&#10;&#9;&#9;&#9;&#9;C840.3,871.8,839.1,873,837.6,873z" transform="matrix(1, 0, 0, 1, 0, 0)"/><g transform="matrix(1, 0, 0, 1, 0, 0)">
			<path d="M678.4,837.7H621c-1.5,0-2.7-1.2-2.7-2.7c0-1.5,1.2-2.7,2.7-2.7h57.4c1.5,0,2.7,1.2,2.7,2.7&#10;&#9;&#9;&#9;&#9;C681.1,836.5,679.9,837.7,678.4,837.7z"/>
		</g><path d="M678.4,861.1H621c-1.5,0-2.7-1.2-2.7-2.7c0-1.5,1.2-2.7,2.7-2.7h57.4c1.5,0,2.7,1.2,2.7,2.7&#10;&#9;&#9;&#9;&#9;C681.1,859.9,679.9,861.1,678.4,861.1z" transform="matrix(1, 0, 0, 1, 0, 0)"/><path d="M678.4,884.5H621c-1.5,0-2.7-1.2-2.7-2.7c0-1.5,1.2-2.7,2.7-2.7h57.4c1.5,0,2.7,1.2,2.7,2.7&#10;&#9;&#9;&#9;&#9;C681.1,883.3,679.9,884.5,678.4,884.5z" transform="matrix(1, 0, 0, 1, 0, 0)"/><path d="M593.1,879.7h-96c-1.5,0-2.7-1.2-2.7-2.7v-91.5c0-1.5,1.2-2.7,2.7-2.7h96c1.5,0,2.7,1.2,2.7,2.7V877&#10;&#9;&#9;&#9;&#9;C595.8,878.5,594.6,879.7,593.1,879.7z M499.9,874.3h90.5v-86.1h-90.5V874.3z" transform="matrix(1, 0, 0, 1, 0, 0)"/><path d="M678.4,910.6h-88.2c-1.5,0-2.7-1.2-2.7-2.7v-6.8h-27.8v6.8c0,1.5-1.2,2.7-2.7,2.7h-89.3c-1.5,0-2.7-1.2-2.7-2.7v-43.1&#10;&#9;&#9;&#9;&#9;c0-1.5,1.2-2.7,2.7-2.7h7v-61.5h-7c-1.5,0-2.7-1.2-2.7-2.7v-43.2c0-1.5,1.2-2.7,2.7-2.7H557c1.5,0,2.7,1.2,2.7,2.7v6.8h27.8v-6.8&#10;&#9;&#9;&#9;&#9;c0-1.5,1.2-2.7,2.7-2.7h20.8c0.7,0,1.4,0.3,1.9,0.8l67.3,67.3c0.5,0.5,0.8,1.2,0.8,1.9v85.9C681.1,909.4,679.9,910.6,678.4,910.6&#10;&#9;&#9;&#9;&#9;z M592.9,905.2h82.7v-82.1l-65.7-65.7h-17v6.8c0,1.5-1.2,2.7-2.7,2.7H557c-1.5,0-2.7-1.2-2.7-2.7v-6.8h-83.8v37.7h7&#10;&#9;&#9;&#9;&#9;c1.5,0,2.7,1.2,2.7,2.7v67c0,1.5-1.2,2.7-2.7,2.7h-7v37.7h83.8v-6.8c0-1.5,1.2-2.7,2.7-2.7h33.2c1.5,0,2.7,1.2,2.7,2.7V905.2z" transform="matrix(1, 0, 0, 1, 0, 0)"/><path d="M860.8,204c-0.5,0-0.9-0.1-1.4-0.4c-0.8-0.5-1.4-1.4-1.4-2.4V122c0-1,0.5-1.9,1.4-2.4c0.8-0.5,1.9-0.5,2.7,0l68.6,39.6&#10;&#9;&#9;&#9;c0.8,0.5,1.4,1.4,1.4,2.4c0,1-0.5,1.9-1.4,2.4l-68.6,39.6C861.8,203.8,861.3,204,860.8,204z M863.5,126.7v69.8l60.4-34.9&#10;&#9;&#9;&#9;L863.5,126.7z" transform="matrix(1, 0, 0, 1, 0, 0)"/><path d="M775.3,213.2H619.5c-1.5,0-2.7-1.2-2.7-2.7V54.8c0-1.5,1.2-2.7,2.7-2.7c1.5,0,2.7,1.2,2.7,2.7v153h153&#10;&#9;&#9;&#9;c1.5,0,2.7,1.2,2.7,2.7C778,212,776.8,213.2,775.3,213.2z" transform="matrix(1, 0, 0, 1, 0, 0)"/><path d="M748.1,240.4c-1.5,0-2.7-1.2-2.7-2.7v-153h-153c-1.5,0-2.7-1.2-2.7-2.7c0-1.5,1.2-2.7,2.7-2.7h155.8&#10;&#9;&#9;&#9;c1.5,0,2.7,1.2,2.7,2.7v155.8C750.9,239.1,749.6,240.4,748.1,240.4z" transform="matrix(1, 0, 0, 1, 0, 0)"/><path d="M605.5,227.2c-0.7,0-1.4-0.3-1.9-0.8c-1.1-1.1-1.1-2.8,0-3.8L760.2,66c1.1-1.1,2.8-1.1,3.8,0c1.1,1.1,1.1,2.8,0,3.8&#10;&#9;&#9;&#9;L607.5,226.4C606.9,226.9,606.2,227.2,605.5,227.2z" transform="matrix(1, 0, 0, 1, 0, 0)"/><path d="M151.5,419.8c-1.5,0-2.7-1.2-2.7-2.7v-61.6c0-1.5,1.2-2.7,2.7-2.7c1.5,0,2.7,1.2,2.7,2.7V417&#10;&#9;&#9;&#9;C154.3,418.5,153,419.8,151.5,419.8z" transform="matrix(1, 0, 0, 1, 0, 0)"/><path d="M151.5,631.8c-1.5,0-2.7-1.2-2.7-2.7v-61.6c0-1.5,1.2-2.7,2.7-2.7c1.5,0,2.7,1.2,2.7,2.7v61.6&#10;&#9;&#9;&#9;C154.3,630.6,153,631.8,151.5,631.8z" transform="matrix(1, 0, 0, 1, 0, 0)"/><path d="M1242.5,419.8c-1.5,0-2.7-1.2-2.7-2.7v-61.6c0-1.5,1.2-2.7,2.7-2.7c1.5,0,2.7,1.2,2.7,2.7V417&#10;&#9;&#9;&#9;C1245.3,418.5,1244,419.8,1242.5,419.8z" transform="matrix(1, 0, 0, 1, 0, 0)"/><path d="M1242.5,631.8c-1.5,0-2.7-1.2-2.7-2.7v-61.6c0-1.5,1.2-2.7,2.7-2.7c1.5,0,2.7,1.2,2.7,2.7v61.6&#10;&#9;&#9;&#9;C1245.3,630.6,1244,631.8,1242.5,631.8z" transform="matrix(1, 0, 0, 1, 0, 0)"/>
</svg>